<svg version="1.1" xmlns="http://www.w3.org/2000/svg" xmlns:xlink="http://www.w3.org/1999/xlink" width="140.72945" height="140.72929" viewBox="0,0,140.72945,140.72929"><g transform="translate(-169.63527,-109.63535)"><g data-paper-data="{&quot;isPaintingLayer&quot;:true}" fill-rule="nonzero" stroke-width="0" stroke-linecap="butt" stroke-linejoin="miter" stroke-miterlimit="10" stroke-dasharray="" stroke-dashoffset="0" style="mix-blend-mode: normal"><g stroke="#000000"><path d="M190.24463,130.24468c27.4791,-27.4791 72.03152,-27.4791 99.51062,0c27.4791,27.4791 27.47911,72.03152 0,99.51064c-27.4791,27.4791 -72.03152,27.4791 -99.51063,-0.00001c-27.4791,-27.4791 -27.4791,-72.03152 0,-99.51062zM201.28984,219.26293c21.37264,21.37264 56.02452,21.37263 77.39715,0c21.37264,-21.37264 21.37263,-56.02452 0,-77.39715c-21.37264,-21.37264 -56.02452,-21.37263 -77.39715,0c-21.37264,21.37264 -21.37263,56.02452 0,77.39715z" fill="#b38147"/><path d="M190.24463,229.75531c-27.4791,-27.4791 -27.4791,-72.03153 0,-99.51064l49.7554,49.7554z" fill="#996d3d"/><path d="M289.7554,130.24484c27.4791,27.4791 27.4791,72.03153 -0.00001,99.51063l-49.7554,-49.7554z" fill="#996d3d"/><path d="M310.36455,179.99999c0,38.86131 -31.50333,70.36464 -70.36464,70.36464c-38.86131,0 -70.36464,-31.50333 -70.36464,-70.36464z" fill="#805b33"/><g data-paper-data="{&quot;index&quot;:null}"><path d="M196.37287,223.62728c-24.09456,-24.09456 -24.09456,-63.15956 0,-87.25412c24.09457,-24.09457 63.15957,-24.09457 87.25413,-0.00001c24.09457,24.09457 24.09456,63.15957 0,87.25413c-24.09456,24.09456 -63.15956,24.09456 -87.25412,0zM206.05768,213.43754c18.74021,18.74021 49.1241,18.74022 67.86432,0c18.74021,-18.74021 18.74022,-49.1241 0,-67.86432c-18.74021,-18.74021 -49.1241,-18.74022 -67.86432,0c-18.74021,18.74021 -18.74022,49.1241 0,67.86432z" fill="#b38147"/><path d="M240.00003,180.00015l-43.62714,43.62714c-24.09456,-24.09456 -24.09456,-63.15957 0,-87.25413z" fill="#996d3d"/><path d="M240.00002,180.00015l43.62714,-43.62714c24.09457,24.09456 24.09457,63.15957 0.00001,87.25413z" fill="#996d3d"/><path d="M178.30195,180.00022c0,-34.07486 27.62314,-61.69799 61.69799,-61.69799c34.07486,0 61.69799,27.62314 61.69799,61.69799z" fill="#805b33"/></g></g><g><path d="M180.9687,180c0,-32.60209 26.42921,-59.03131 59.03131,-59.03131c32.60209,0 59.03132,26.42921 59.03132,59.03131c0,32.60209 -26.42921,59.03131 -59.03132,59.03131c-32.60209,0 -59.03131,-26.42921 -59.03131,-59.03131z" fill="#66d1ff" stroke="none"/><path d="M294.2313,175.19999c2.65097,0 4.8,2.14903 4.8,4.8c0,32.60209 -26.42921,59.03131 -59.03132,59.03131c-32.60209,0 -59.03131,-26.42921 -59.03131,-59.03131c0,-2.65097 2.14903,-4.8 4.8,-4.8c2.65097,0 4.8,2.14903 4.8,4.8c0,27.30016 22.13115,49.43131 49.43131,49.43131c27.30018,0 49.43132,-22.13115 49.43132,-49.43131c0,-2.65097 2.14903,-4.8 4.8,-4.8z" fill="#5ec1ec" stroke="#000000"/><path d="M240.00001,130.22158c0,1.59822 -1.2956,2.89382 -2.89382,2.89382c-24.29546,0 -43.99079,19.69534 -43.99079,43.99079c0,1.59822 -1.2956,2.89382 -2.89382,2.89382c-1.59822,0 -2.89382,-1.2956 -2.89382,-2.89382c0,-27.49187 22.28655,-49.77842 49.77842,-49.77842c1.59822,0 2.89382,1.2956 2.89382,2.89382z" fill="#b3e8ff" stroke="#d9f4ff"/></g></g></g></svg>