<svg version="1.1" xmlns="http://www.w3.org/2000/svg" xmlns:xlink="http://www.w3.org/1999/xlink" width="71.47714" height="46.18465" viewBox="0,0,71.47714,46.18465"><g transform="translate(-204.26145,-164.90867)"><g data-paper-data="{&quot;isPaintingLayer&quot;:true}" fill-rule="nonzero" stroke="#000000" stroke-width="0" stroke-linecap="butt" stroke-linejoin="miter" stroke-miterlimit="10" stroke-dasharray="" stroke-dashoffset="0" style="mix-blend-mode: normal"><g><path d="M275.73859,195.52779c0,9.52863 -16.0007,15.56553 -35.73856,15.56553c-19.73786,0 -35.73856,-6.0369 -35.73856,-15.56553v-15.52779c0,-7.75903 71.47713,-7.75903 71.47713,0z" fill="#333333"/><path d="M275.73859,179.75332c0,5.30892 -16.0007,9.61265 -35.73856,9.61265c-19.73786,0 -35.73857,-4.30373 -35.73857,-9.61265c0,-5.30892 16.0007,-9.61265 35.73857,-9.61265c19.73786,0 35.73856,4.30373 35.73856,9.61265z" fill="#4d4d4d"/></g><g><path d="M257.3216,175.35553c0,1.53139 -7.75513,2.77282 -17.32157,2.77282c-9.56644,0 -17.32156,-1.24143 -17.32156,-2.77282v-7.97699c0,-0.47927 7.75513,-2.46987 17.32156,-2.46987c9.56644,0 17.32157,1.9906 17.32157,2.46987z" data-paper-data="{&quot;index&quot;:null}" fill="#ff0000"/><path d="M240.00003,164.90867c9.56644,0 17.32157,1.17122 17.32157,2.616c0,1.44478 -7.75513,2.616 -17.32157,2.616c-9.56643,0 -17.32156,-1.17122 -17.32156,-2.616c0,-1.44478 7.75512,-2.616 17.32156,-2.616z" fill="#ff8080"/></g></g></g></svg>